<svg xmlns="http://www.w3.org/2000/svg" width="168.76" height="40" viewBox="0 0 168.76 40"><defs><style>.cls-1{fill:#fff;}</style></defs><g id="Layer_2" data-name="Layer 2"><g id="Layer_1-2" data-name="Layer 1"><path class="cls-1" d="M6.51,13.83c-.56-.21-1.06-.1-1.21.36s.17.85.73,1.05,1.07.08,1.22-.36S7.08,14,6.51,13.83Z"/><path class="cls-1" d="M14.61,4.81l.1.67.61-.25-.44-.52-.38-.48C14.54,4.42,14.59,4.65,14.61,4.81Z"/><path class="cls-1" d="M11.15,7.76,11,7.91l.55.67.22-.17c.24-.21.38-.47.17-.72S11.42,7.53,11.15,7.76Z"/><path class="cls-1" d="M11,6.72c-.15-.17-.36-.15-.58,0a1.45,1.45,0,0,0-.22.21l.44.54.17-.14C11.1,7.14,11.16,6.9,11,6.72Z"/><path class="cls-1" d="M5.34,20.11c.59,0,1-.25,1.06-.72s-.43-.75-1-.77-1,.21-1,.71S4.74,20.09,5.34,20.11Z"/><path class="cls-1" d="M28,26A9.65,9.65,0,0,1,21.09,9.64c-.79-.06-3.65-.12-5.4,2-2,2.45.8,4.58-1.08,7.24a2.21,2.21,0,0,0,1.69-2.16c-.05-1.75-.16-2.81.37-2.82,1.66-.05,1.17,5.7-2,6.56s-3.26,4.79-3.26,4.79S12,22.52,14,22.33c1.53-.14,2,.31,2,1.11a7.61,7.61,0,0,1-7.75,6.4c-1.38-.06-2.5-1.4-4.93-.16,0,0,3.19.16,2.63,1.05s-3.69-.17-4.21-2.14a6.09,6.09,0,0,1,.31-4c-.11-.44-.19-.89-.25-1.16-.64,1.16-3.61,6.92-.09,9.9,2.61,2.22,6.19,1.23,8.35.31S15.82,31,16.53,31.5s-.46,2.4-4,2.7a8.46,8.46,0,0,0-5.59,2.91,8.29,8.29,0,0,1,6-2.29c3.51.26,6.93-1.2,7.21-3S23.42,28,25,28.42s-.85,2.8-2.41,2.69a5.05,5.05,0,0,0,4.13-1.41c1.45-1.45,1.1-3,3-3.87A9.12,9.12,0,0,1,28,26Z"/><path class="cls-1" d="M28,25.32a9,9,0,1,0-9-9h0A9,9,0,0,0,28,25.32Zm8.41-9A8.39,8.39,0,0,1,34.9,21.2H32.76a1.52,1.52,0,0,1-1.25-.62l-.83-1.12a1.55,1.55,0,0,1-.22-1.41L31,16.31a1.53,1.53,0,0,1,.92-1l1.3-.48a1.57,1.57,0,0,1,1.45.2l1.74,1.27Zm-8.12-5.49A1.55,1.55,0,0,1,29,9.58l1.7-1.23a8.43,8.43,0,0,1,4.14,3l-.62,1.92a1.54,1.54,0,0,1-.94,1l-1.38.52a1.56,1.56,0,0,1-1.45-.2L29,13.5a1.56,1.56,0,0,1-.63-1.26ZM29,19.16a1.52,1.52,0,0,1,1.24.62L31,20.9a1.54,1.54,0,0,1,.23,1.39l-.67,2.05a8.4,8.4,0,0,1-5.09,0l-.66-2a1.57,1.57,0,0,1,.22-1.39l.82-1.13a1.57,1.57,0,0,1,1.26-.64ZM25.41,8.35l1.7,1.24a1.55,1.55,0,0,1,.64,1.25v1.41a1.54,1.54,0,0,1-.64,1.25l-1.47,1.07a1.54,1.54,0,0,1-1.44.2l-1.31-.47a1.53,1.53,0,0,1-.94-1l-.65-2A8.45,8.45,0,0,1,25.41,8.35Zm-5.78,8,1.75-1.29a1.52,1.52,0,0,1,1.43-.2l1.29.46a1.56,1.56,0,0,1,1,1l.59,1.75a1.54,1.54,0,0,1-.23,1.39l-.8,1.11a1.57,1.57,0,0,1-1.26.58H21.18A8.46,8.46,0,0,1,19.63,16.38Z"/><path class="cls-1" d="M21.45,0A20,20,0,0,0,3.53,28.86a4.79,4.79,0,0,1,.64-.21,19.38,19.38,0,1,1,6.18,7.16c-.25.09-.5.18-.74.29A20,20,0,1,0,21.45,0Z"/><path class="cls-1" d="M32.62,25.24a12.31,12.31,0,0,1-11.17,7.08h-.72a3,3,0,0,1-.32.65c.35,0,.69,0,1,0A13,13,0,0,0,33.53,24.8Z"/><path class="cls-1" d="M12.2,28.15A12.32,12.32,0,0,1,21.45,7.67a12.18,12.18,0,0,1,2,.17,7.83,7.83,0,0,1,1-.47A13,13,0,0,0,11.61,28.46Z"/><path class="cls-1" d="M50.78,2.94v8.58h1.1V14h-5V11.52H48V2.94H43.64V.48H55.13V2.94Z"/><path class="cls-1" d="M70.11,11.52h1.1V14H68.3L66.22,9.33H61.91v2.16H63V14H58V11.52h1.12V2.94H58V.48H66.8c2.79,0,4.72,1.7,4.72,4.47a4.09,4.09,0,0,1-2.61,4ZM68.74,5c0-1.33-.76-2-2.19-2H61.9V6.88h4.65C67.9,6.88,68.74,6.34,68.74,5Z"/><path class="cls-1" d="M88.78,11.52V14H85.67l-1-2.61H78.38l-1,2.61h-3.1V11.52h1.11L78.86,3h-1.1V.48h5.45l4.48,11.07ZM83.69,9.05,81.53,3.44h0L79.3,9.05Z"/><path class="cls-1" d="M103,9.45V14H91.85V11.52H93V3H91.87V.48h5V3H95.73v8.56h4.53V9.45Z"/><path class="cls-1" d="M109.75,3V6h6.94V8.29h-6.94v3.2h7.79V14H105.86V11.52H107V3h-1.1V.48h11.68V3Z"/><path class="cls-1" d="M124.57,3V6h6.93V8.29h-6.93v3.2h7.78V14H120.71V11.52h1.1V3h-1.1V.48h11.64V3Z"/><path class="cls-1" d="M54.66,39.73c-5.89-.24-9-4.49-9-10.34V23H44.14V18.54h8.35V23H51v6.41c0,3.95,1.22,5.62,3.69,5.82ZM66.24,18.54V23H64.67v6.41c0,5.82-3.12,10.1-8.94,10.34V35.21c2.4-.24,3.65-2,3.65-5.82V23H57.9V18.54Z"/><path class="cls-1" d="M75.82,34.86h1.59v4.46H69.1V34.86h1.51V23H69.1V18.54h6.72l7.63,11.07v8.15l-7.52-10.6h-.11ZM89.75,23V34.86H91v4.46H84.52V23H82.94V18.54h8.32V23Z"/><path class="cls-1" d="M101,23v11.8h1.55v4.49H94.23V34.83h1.55V23H94.23V18.54h8.33V23Z"/><path class="cls-1" d="M118.42,34.83v4.49h-8.35V34.83h1.55V23H105.4V18.54h11.45V34.85Zm4.66-16.3V23h-5.17V18.54Z"/><path class="cls-1" d="M142.61,26.69v4.16h-9.72v8.47h-6.95V34.83h1.75V23h-1.75V18.54h6.95v8.15Zm1.31-8.15V23H134V18.54Zm0,16.3v4.49H134v-4.5Z"/><path class="cls-1" d="M153.72,39.32h-6.8V34.83h1.6V23h-1.6V18.54h6.8Zm15-10.38c0,7.26-4.46,10.38-12.23,10.38h-1.75V34.83h1.75c4.66,0,7-1.61,7-5.92,0-4.6-2.39-5.88-7-5.88h-1.75V18.54h1.75C164.45,18.54,168.76,21.64,168.76,28.94Z"/><path class="cls-1" d="M32.05,4.26A19,19,0,0,0,2.45,20,19.22,19.22,0,0,0,4.5,28.58a3.81,3.81,0,0,1,.75-.07,5.67,5.67,0,0,1,2,.41,3.79,3.79,0,0,0,1,.28h.13a7.24,7.24,0,0,0,2.91-.58A13.33,13.33,0,0,1,25,7.19a9.65,9.65,0,0,1,9.24,16.52c-.06.23-.13.45-.21.67l-.07.2a13.35,13.35,0,0,1-12.52,8.73,7.79,7.79,0,0,1-1.28-.07,5.27,5.27,0,0,1-1.83,1.31,11,11,0,0,1-4.61,1H12.46a7.05,7.05,0,0,0-1.71.24A19,19,0,0,0,32.05,4.26Zm-28.27,15a1.44,1.44,0,0,1,1.47-1.42h.13A1.47,1.47,0,0,1,7,19.23v.22a1.44,1.44,0,0,1-1.47,1.4H5.34a1.49,1.49,0,0,1-1.56-1.42Zm.77,5.76-.46-1.83.54-.14.28,1.16.7-.17L5.35,23l.55-.14.26,1.08,1.21-.3.17.67ZM7.83,14.91l-.06.19A1.46,1.46,0,0,1,5.92,16l-.13-.06a1.49,1.49,0,0,1-1-1.84l0-.11a1.45,1.45,0,0,1,1.83-.9l.14.06A1.48,1.48,0,0,1,7.83,14.91Zm1.51-3.06-2-1.46-.47.68-.48-.34L7.7,8.79l.48.34-.48.69,2,1.45Zm3.32-3.91a2,2,0,0,1-.75,1,6.85,6.85,0,0,1-.61.45L9.36,7.06A5.52,5.52,0,0,1,10,6.43,1.75,1.75,0,0,1,10.82,6a.65.65,0,0,1,.67.22.71.71,0,0,1,0,.83.77.77,0,0,1,1,.19A.84.84,0,0,1,12.66,7.94Zm3.51-1.61-.54-.62L14.82,6l.12.81-.66.29-.39-3.2.84-.37L16.85,6Zm2.27-.71L18,2.57l.69-.11L19,4.93l1.21-.19.09.58Zm5.47-.18L22,5.27l.29-3,.69.07-.23,2.48L24,4.86Zm1.7,31.72a2,2,0,0,1-1.63.22v0a1.67,1.67,0,0,1-1-2.14h0a1.59,1.59,0,0,1,.52-.71,1.82,1.82,0,0,1,.83-.36,2,2,0,0,1,.77,0,1.4,1.4,0,0,1,.63.32l-.39.51A1.09,1.09,0,0,0,24,35a.91.91,0,0,0-.3.42,1.26,1.26,0,0,0,0,.55,1.18,1.18,0,0,0,.22.5,1,1,0,0,0,.42.29,1.15,1.15,0,0,0,.55,0,1,1,0,0,0,.73-.51l.54.35A1.56,1.56,0,0,1,25.61,37.16Zm2.88-.8-1.43-2.87.66-.32,1.17,2.33,1.44-.71.26.55Zm5.29-3.43a1.8,1.8,0,0,1-.2.19,1.43,1.43,0,0,1-1,.45,1.46,1.46,0,0,1-1-.54l-1.2-1.33.54-.49L32,32.51c.38.43.75.47,1.1.15a.63.63,0,0,0,.25-.5.91.91,0,0,0-.3-.59l-1.16-1.3.54-.5,1.2,1.29A1.33,1.33,0,0,1,33.78,32.93Zm3.35-4.4L36.31,30l-2.77-1.6L34.32,27A1.52,1.52,0,0,1,35,26.4a.74.74,0,0,1,.68,0,.92.92,0,0,1,.31.31.86.86,0,0,1,.09.42.78.78,0,0,1,.46-.23A.8.8,0,0,1,37,27a.71.71,0,0,1,.39.58A1.55,1.55,0,0,1,37.13,28.53Z"/><path class="cls-1" d="M36.57,27.62c-.22-.13-.44,0-.63.32l-.45.74.68.4.48-.75a.81.81,0,0,0,.11-.43A.34.34,0,0,0,36.57,27.62Z"/><path class="cls-1" d="M35.36,27.1a.36.36,0,0,0-.32,0,.89.89,0,0,0-.29.32l-.36.61.65.38.36-.64a.67.67,0,0,0,.13-.41A.33.33,0,0,0,35.36,27.1Z"/></g></g></svg>