<svg xmlns="http://www.w3.org/2000/svg" width="289.9" height="70" viewBox="0 0 289.9 70"><defs><style>.cls-1{fill:#fff;}.cls-2{fill:#d90404;}.cls-3{fill:#041f54;}</style></defs><g id="Layer_2" data-name="Layer 2"><g id="Layer_1-2" data-name="Layer 1"><circle class="cls-1" cx="36.9" cy="35" r="35"/><path class="cls-2" d="M48.21,45.28A16.57,16.57,0,0,1,36.27,17.21C34.92,17.11,30,17,27,20.63c-3.51,4.2,1.38,7.86-1.85,12.43a3.79,3.79,0,0,0,2.89-3.71c-.08-3-.26-4.83.65-4.85,2.84-.08,2,9.79-3.4,11.28S19.68,44,19.68,44s1.05-4.67,4.41-5c2.64-.24,3.4.54,3.41,1.91s-2.79,11.21-13.32,11c-2.37-.11-4.28-2.42-8.46-.28,0,0,5.47.28,4.52,1.8S3.9,53.13,3,49.76a10.47,10.47,0,0,1,.53-6.85c-.18-.76-.32-1.53-.42-2-1.1,2-6.2,11.88-.16,17,4.49,3.81,10.63,2.11,14.34.54s9.94-4.5,11.16-3.69-.79,4.11-6.9,4.63a14.54,14.54,0,0,0-9.6,5S16.25,60,22.29,60.45s11.91-2.06,12.39-5.11,5.6-6.6,8.36-5.88-1.46,4.81-4.14,4.62A8.71,8.71,0,0,0,46,51.66c2.48-2.49,1.88-5.08,5.19-6.65A15.84,15.84,0,0,1,48.21,45.28Z"/><path class="cls-3" d="M48.21,44.14A15.44,15.44,0,1,0,32.77,28.7,15.46,15.46,0,0,0,48.21,44.14ZM62.65,28.7A14.42,14.42,0,0,1,60,37.07H56.32A2.65,2.65,0,0,1,54.18,36l-1.43-1.93a2.67,2.67,0,0,1-.39-2.41l1-3A2.64,2.64,0,0,1,54.94,27l2.23-.83a2.67,2.67,0,0,1,2.49.35l3,2.17ZM48.71,19.26a2.65,2.65,0,0,1,1.09-2.15L52.72,15a14.48,14.48,0,0,1,7.11,5.15l-1.07,3.29a2.67,2.67,0,0,1-1.61,1.67L54.77,26a2.65,2.65,0,0,1-2.48-.34L49.8,23.83a2.65,2.65,0,0,1-1.09-2.15Zm1.08,14.29a2.67,2.67,0,0,1,2.14,1.07l1.42,1.92a2.65,2.65,0,0,1,.39,2.4L52.6,42.45a14.2,14.2,0,0,1-4.39.69,14.62,14.62,0,0,1-4.36-.67L42.72,39a2.65,2.65,0,0,1,.38-2.39l1.41-1.94a2.65,2.65,0,0,1,2.15-1.09ZM43.69,15l2.92,2.12a2.66,2.66,0,0,1,1.1,2.15v2.42a2.66,2.66,0,0,1-1.1,2.15l-2.52,1.83a2.66,2.66,0,0,1-2.47.35l-2.25-.81a2.65,2.65,0,0,1-1.62-1.68l-1.12-3.44A14.56,14.56,0,0,1,43.69,15ZM33.77,28.78l3-2.21a2.64,2.64,0,0,1,2.46-.35l2.21.8A2.65,2.65,0,0,1,43.1,28.7l1,3a2.68,2.68,0,0,1-.38,2.39L42.33,36A2.69,2.69,0,0,1,40.18,37H36.43A14.39,14.39,0,0,1,33.77,28.78Z"/><path class="cls-3" d="M36.9.65A34.34,34.34,0,0,0,6.11,50.22a10.16,10.16,0,0,1,1.1-.37A33.2,33.2,0,0,1,36.9,1.79,33.21,33.21,0,1,1,17.83,62.16a13.65,13.65,0,0,0-1.28.5A34.35,34.35,0,1,0,36.9.65Z"/><path class="cls-3" d="M36.9,2.36A32.64,32.64,0,0,0,7.78,49.73a7,7,0,0,1,1.29-.12,9.65,9.65,0,0,1,3.34.71,6.69,6.69,0,0,0,1.81.48h.23a12.23,12.23,0,0,0,5-1A22.89,22.89,0,0,1,43,13a16.44,16.44,0,0,1,5.18-.83A16.57,16.57,0,0,1,58.88,41.37c-.11.39-.23.78-.37,1.16l-.11.33a22.9,22.9,0,0,1-21.5,15c-.74,0-1.48,0-2.21-.11A9.25,9.25,0,0,1,31.55,60a19.19,19.19,0,0,1-7.92,1.63c-.47,0-.95,0-1.42,0q-.37,0-.75,0a11.55,11.55,0,0,0-2.95.4A32.64,32.64,0,1,0,36.9,2.36Z"/><path class="cls-3" d="M56.08,44A21.19,21.19,0,0,1,36.9,56.17c-.42,0-.83,0-1.24,0a4.46,4.46,0,0,1-.56,1.11c.6,0,1.2.07,1.8.07a22.34,22.34,0,0,0,20.74-14.1Z"/><path class="cls-3" d="M21,49A21.16,21.16,0,0,1,36.9,13.83a21.55,21.55,0,0,1,3.43.28,17.41,17.41,0,0,1,1.75-.81A22.29,22.29,0,0,0,20,49.54C20.34,49.36,20.68,49.17,21,49Z"/><path class="cls-1" d="M7.86,43.67l-.78-3.14L8,40.29l.49,2L9.69,42l-.45-1.85.94-.23.46,1.84,2.07-.51L13,42.4Z"/><path class="cls-1" d="M9.29,31.36A2.52,2.52,0,0,1,12,34.05a2.47,2.47,0,0,1-2.77,2.4,2.57,2.57,0,0,1-2.69-2.67A2.48,2.48,0,0,1,9.29,31.36Zm-.06,3.83c1,0,1.78-.43,1.81-1.23s-.73-1.3-1.76-1.33S7.5,33,7.47,33.85,8.2,35.15,9.23,35.19Z"/><path class="cls-1" d="M11.63,23.2a2.53,2.53,0,0,1,1.76,3.38A2.48,2.48,0,0,1,10,28a2.58,2.58,0,0,1-1.75-3.36A2.47,2.47,0,0,1,11.63,23.2Zm-1.22,3.63c1,.34,1.83.13,2.1-.63s-.3-1.45-1.27-1.8-1.82-.16-2.09.62S9.44,26.48,10.41,26.83Z"/><path class="cls-1" d="M12.58,18.5l-.82,1.16-.82-.58,2.33-3.33.83.58-.83,1.18L16.78,20l-.69,1Z"/><path class="cls-1" d="M16.13,12.78a9.14,9.14,0,0,1,1.12-1.08,2.88,2.88,0,0,1,1.39-.77,1.14,1.14,0,0,1,1.15.39,1.21,1.21,0,0,1,.06,1.43h0a1.33,1.33,0,0,1,1.64.32,1.42,1.42,0,0,1,.3,1.22A3.38,3.38,0,0,1,20.51,16a9.49,9.49,0,0,1-1.05.77Zm2.21.79.3-.25c.48-.4.58-.82.32-1.12s-.62-.27-1,.08a2.64,2.64,0,0,0-.37.35Zm1.5,1.81.37-.29c.41-.35.65-.81.29-1.24s-.84-.26-1.3.12l-.31.26Z"/><path class="cls-1" d="M25.51,11l.2,1.39-1.13.51-.67-5.5,1.44-.63L29,11l-1.18.52-.92-1.07Zm.86-1.36-.76-.9c-.21-.25-.45-.57-.65-.82h0c.06.32.15.72.19,1l.17,1.15Z"/><path class="cls-1" d="M30.91,5.06l1.19-.19.65,4.24,2.08-.32.16,1-3.27.51Z"/><path class="cls-1" d="M38.3,4.47l1.19.11L39.1,8.85,41.2,9l-.09,1-3.3-.3Z"/><path class="cls-1" d="M41.24,64.91a2.88,2.88,0,0,1-1.73-3.7A2.63,2.63,0,0,1,40.39,60a3.15,3.15,0,0,1,1.44-.63,3.24,3.24,0,0,1,1.32,0,2.54,2.54,0,0,1,1.07.55l-.67.88a1.77,1.77,0,0,0-1.47-.4,1.88,1.88,0,0,0-.86.38,1.54,1.54,0,0,0-.51.72,2,2,0,0,0-.07.94,1.93,1.93,0,0,0,.38.86,1.59,1.59,0,0,0,.72.5,1.84,1.84,0,0,0,.94.07,1.77,1.77,0,0,0,1.25-.88l.93.6a2.53,2.53,0,0,1-.83.89,3.38,3.38,0,0,1-2.79.37Z"/><path class="cls-1" d="M46.53,58.17l1.14-.55,2,4,2.48-1.21.45.93-3.62,1.76Z"/><path class="cls-1" d="M55.93,58.31a2.49,2.49,0,0,1-1.74-.93L52.12,55.1l.94-.85,2,2.24c.66.73,1.29.81,1.9.26a1.13,1.13,0,0,0,.43-.87,1.63,1.63,0,0,0-.52-1l-2-2.24.93-.85L57.87,54a2.27,2.27,0,0,1-.15,3.53A2.46,2.46,0,0,1,55.93,58.31Z"/><path class="cls-1" d="M62.75,46.85a1.38,1.38,0,0,1,.88.2,1.26,1.26,0,0,1,.68,1,2.83,2.83,0,0,1-.48,1.61l-1.42,2.46-4.76-2.74L59,47.09A2.58,2.58,0,0,1,60.09,46a1.24,1.24,0,0,1,1.18,0,1.39,1.39,0,0,1,.52.53,1.31,1.31,0,0,1,.16.71A1.47,1.47,0,0,1,62.75,46.85ZM59.11,48.8l1.12.65.63-1.1a1.28,1.28,0,0,0,.22-.7.58.58,0,0,0-.3-.45.53.53,0,0,0-.54,0,1.33,1.33,0,0,0-.5.54Zm4.08-.23a.56.56,0,0,0-.32-.48c-.39-.23-.76-.05-1.09.54L61,49.91l1.17.68L63,49.3A1.38,1.38,0,0,0,63.19,48.57Z"/><path class="cls-1" d="M87.27,5.7V20.43h1.89v4.25H80.6V20.43h1.89V5.7H75V1.48H94.74V5.7Z"/><path class="cls-1" d="M120.47,20.43h1.89v4.25h-5l-3.58-8h-7.4v3.71h1.89v4.25H99.65V20.43h1.93V5.7H99.65V1.48h15.14c4.78,0,8.1,2.92,8.1,7.67a7,7,0,0,1-4.48,6.9ZM118.11,9.15c0-2.29-1.3-3.45-3.75-3.45h-8v6.77h8C116.68,12.47,118.11,11.54,118.11,9.15Z"/><path class="cls-1" d="M152.53,20.43v4.25h-5.34l-1.76-4.48H134.67l-1.75,4.48H127.6V20.43h1.9l6-14.7h-1.89V1.48h9.36l7.7,19Zm-8.73-4.24-3.72-9.63H140l-3.75,9.63Z"/><path class="cls-1" d="M177,16.88v7.8H157.81V20.43h1.89V5.73h-1.85V1.48h8.53V5.73h-1.9v14.7h7.77V16.88Z"/><path class="cls-1" d="M188.55,5.73v5.15h11.92v4H188.55v5.51h13.38v4.25H181.88V20.43h1.89V5.73h-1.89V1.48h20.05V5.73Z"/><path class="cls-1" d="M214,5.73v5.15h11.91v4H214v5.51h13.37v4.25h-20V20.43h1.89V5.73h-1.89V1.48h20V5.73Z"/><path class="cls-2" d="M93.93,68.89c-10.11-.41-15.46-7.71-15.46-17.76v-11H75.86V32.5H90.2v7.66H87.6v11c0,6.79,2.09,9.65,6.33,10Zm19.9-36.39v7.66h-2.7v11c0,10-5.36,17.35-15.36,17.76V61.13c4.13-.41,6.27-3.47,6.27-10v-11H99.49V32.5Z"/><path class="cls-2" d="M130.27,60.52H133v7.66H118.73V60.52h2.6V40.21h-2.6V32.5h11.54l13.11,19v14L130.47,47.3h-.2ZM154.2,40.21V60.52h2.14v7.66H145.22v-28h-2.71V32.5H156.8v7.71Z"/><path class="cls-2" d="M173.54,40.21V60.47h2.66v7.71H161.9V60.47h2.66V40.21H161.9V32.5h14.3v7.71Z"/><path class="cls-2" d="M203.45,60.47v7.71H189.11V60.47h2.65V40.21H181.09V32.5h19.65v28Zm8-28v7.71h-8.88V32.5Z"/><path class="cls-2" d="M245,46.49v7.14H228.3V68.18H216.36V60.47h3V40.21h-3V32.5H228.3v14Zm2.25-14v7.71H230.14V32.5Zm0,28v7.71H230.14V60.47Z"/><path class="cls-2" d="M264.07,68.18H252.39V60.47h2.75V40.21h-2.75V32.5h11.68ZM289.9,50.36c0,12.46-7.66,17.82-21,17.82h-3V60.47h3c8,0,12.05-2.76,12.05-10.16,0-7.91-4.09-10.1-12.05-10.1h-3V32.5h3C282.5,32.5,289.9,37.81,289.9,50.36Z"/></g></g></svg>